# xmcd CD database file
#
# Track frame offsets:
#	150
#	20720
#	48528
#	64733
#	88343
#	119600
#	146634
#	169181
#	197320
#
# Disc length: 3362 seconds
#
# Revision: 0
# Processed by: cddbd v1.5PL3 Copyright (c) Steve Scherf et al.
# Submitted via: NeoAudio 9.9.9
#
DISCID=830d2009
DTITLE=Long Black Sedan - Louisiana Prison
DYEAR=2003
DGENRE=Blues
TTITLE0=Burn Baby Burn
TTITLE1=Louisiana Prison
TTITLE2=Only Son
TTITLE3=I Don't Care
TTITLE4=I'm Not The One
TTITLE5=Other Side
TTITLE6=Hillbilly Hotrodder
TTITLE7=You And I
TTITLE8=Mr. Wolf's wild Ride
EXTD=YEAR: 2003
EXTT0=
EXTT1=
EXTT2=
EXTT3=
EXTT4=
EXTT5=
EXTT6=
EXTT7=
EXTT8=
PLAYORDER=
